<?xml version="1.0" encoding="UTF-8" standalone="no"?>
<!-- Created with Inkscape (http://www.inkscape.org/) -->

<svg
   xmlns:dc="http://purl.org/dc/elements/1.1/"
   xmlns:cc="http://creativecommons.org/ns#"
   xmlns:rdf="http://www.w3.org/1999/02/22-rdf-syntax-ns#"
   xmlns:svg="http://www.w3.org/2000/svg"
   xmlns="http://www.w3.org/2000/svg"
   xmlns:sodipodi="http://sodipodi.sourceforge.net/DTD/sodipodi-0.dtd"
   xmlns:inkscape="http://www.inkscape.org/namespaces/inkscape"
   width="210mm"
   height="297mm"
   id="svg2"
   version="1.1"
   inkscape:version="0.48.4 r9939"
   sodipodi:docname="loupe.svg"
   inkscape:export-filename="/home/hottin/Bureau/epicunity.png"
   inkscape:export-xdpi="90"
   inkscape:export-ydpi="90">
  <defs
     id="defs4" />
  <sodipodi:namedview
     id="base"
     pagecolor="#ffffff"
     bordercolor="#666666"
     borderopacity="1.0"
     inkscape:pageopacity="0.0"
     inkscape:pageshadow="2"
     inkscape:zoom="1.2414648"
     inkscape:cx="389.03035"
     inkscape:cy="555.91433"
     inkscape:document-units="px"
     inkscape:current-layer="layer1"
     showgrid="false"
     inkscape:snap-object-midpoints="true"
     inkscape:snap-midpoints="true"
     inkscape:snap-bbox="false"
     inkscape:snap-center="true"
     inkscape:snap-grids="true"
     inkscape:window-width="1335"
     inkscape:window-height="1026"
     inkscape:window-x="65"
     inkscape:window-y="24"
     inkscape:window-maximized="1"
     showguides="true"
     inkscape:guide-bbox="true"
     inkscape:snap-page="false" />
  <metadata
     id="metadata7">
    <rdf:RDF>
      <cc:Work
         rdf:about="">
        <dc:format>image/svg+xml</dc:format>
        <dc:type
           rdf:resource="http://purl.org/dc/dcmitype/StillImage" />
        <dc:title></dc:title>
      </cc:Work>
    </rdf:RDF>
  </metadata>
  <g
     inkscape:label="Calque 1"
     inkscape:groupmode="layer"
     id="layer1"
     style="display:inline">
    <g
       id="g3892"
       inkscape:export-xdpi="90"
       inkscape:export-ydpi="90">
      <rect
         transform="matrix(0.85848846,-0.51283288,0.51283288,0.85848846,0,0)"
         y="592.08417"
         x="66.043823"
         height="173.32808"
         width="80"
         id="rect3779"
         style="fill:#5fbcd3;stroke:none" />
      <path
         transform="matrix(0.90776723,-0.54227041,0.53103993,0.88896728,-311.38109,157.10105)"
         d="m 665.71428,412.36218 a 236.42857,241.42857 0 1 1 -472.85715,0 236.42857,241.42857 0 1 1 472.85715,0 z"
         sodipodi:ry="241.42857"
         sodipodi:rx="236.42857"
         sodipodi:cy="412.36218"
         sodipodi:cx="429.28571"
         id="path2985"
         style="fill:#333333;fill-opacity:1;fill-rule:evenodd;stroke:none"
         sodipodi:type="arc" />
      <path
         transform="matrix(0.81699051,-0.48804337,0.47793596,0.80007059,-250.51387,170.47979)"
         d="m 665.71428,412.36218 a 236.42857,241.42857 0 1 1 -472.85715,0 236.42857,241.42857 0 1 1 472.85715,0 z"
         sodipodi:ry="241.42857"
         sodipodi:rx="236.42857"
         sodipodi:cy="412.36218"
         sodipodi:cx="429.28571"
         id="path2985-2"
         style="fill:#5fbcd3;fill-opacity:1;fill-rule:evenodd;stroke:none"
         sodipodi:type="arc" />
      <rect
         transform="matrix(0.85848846,-0.51283288,0.51283288,0.85848846,0,0)"
         y="765.41223"
         x="36.494202"
         height="367.13"
         width="139.09923"
         id="rect3781"
         style="fill:#333333;fill-opacity:1;stroke:none;stroke-width:0.90076845999999999;stroke-opacity:1" />
      <path
         transform="matrix(0.18155345,-0.10845408,0.10620799,0.17779346,117.86306,167.55116)"
         d="m 665.71428,412.36218 a 236.42857,241.42857 0 1 1 -472.85715,0 236.42857,241.42857 0 1 1 472.85715,0 z"
         sodipodi:ry="241.42857"
         sodipodi:rx="236.42857"
         sodipodi:cy="412.36218"
         sodipodi:cx="429.28571"
         id="path2985-2-6"
         style="fill:#ffffff;fill-rule:evenodd;stroke:none"
         sodipodi:type="arc" />
      <path
         transform="matrix(0.18155345,-0.10845408,0.10620799,0.17779346,78.976795,321.82477)"
         d="m 665.71428,412.36218 a 236.42857,241.42857 0 1 1 -472.85715,0 236.42857,241.42857 0 1 1 472.85715,0 z"
         sodipodi:ry="241.42857"
         sodipodi:rx="236.42857"
         sodipodi:cy="412.36218"
         sodipodi:cx="429.28571"
         id="path2985-2-6-8"
         style="fill:#ffffff;fill-rule:evenodd;stroke:none"
         sodipodi:type="arc" />
      <path
         sodipodi:end="4.712389"
         sodipodi:start="3.1415927"
         transform="matrix(0.59004869,-0.35247576,0.26907117,0.45042839,-66.963018,256.46179)"
         d="M 192.85713,412.36217 A 236.42857,309.71487 0 0 1 429.28571,102.64731 l 0,309.71487 z"
         sodipodi:ry="309.71487"
         sodipodi:rx="236.42857"
         sodipodi:cy="412.36218"
         sodipodi:cx="429.28571"
         id="path2985-2-6-8-7-1"
         style="fill:#ffffff;fill-rule:evenodd;stroke:none"
         sodipodi:type="arc" />
      <path
         transform="matrix(0.22759018,-0.13595492,0.10348891,0.17324169,156.76177,277.90535)"
         d="m 665.71428,412.36218 a 236.42857,309.71487 0 1 1 -472.85715,0 236.42857,309.71487 0 1 1 472.85715,0 z"
         sodipodi:ry="309.71487"
         sodipodi:rx="236.42857"
         sodipodi:cy="412.36218"
         sodipodi:cx="429.28571"
         id="path2985-2-6-8-7"
         style="fill:#5fbcd3;fill-opacity:1;fill-rule:evenodd;stroke:none"
         sodipodi:type="arc" />
    </g>
    <g
       id="g3004">
      <flowRoot
         inkscape:transform-center-y="98.37223"
         inkscape:transform-center-x="4.6894394"
         transform="matrix(1.6699037,0.00510781,-0.00863179,2.3370969,164.78901,-1107.0431)"
         style="font-size:40px;font-style:normal;font-variant:normal;font-weight:normal;font-stretch:normal;text-align:start;line-height:125%;letter-spacing:0px;word-spacing:0px;text-anchor:start;fill:#000000;fill-opacity:1;stroke:none;font-family:Sans;-inkscape-font-specification:Clean"
         id="flowRoot3010"
         xml:space="preserve"><flowRegion
           id="flowRegion3012"><rect
             y="576.19781"
             x="45.565968"
             height="60.322701"
             width="171.19905"
             id="rect3014"
             style="font-style:normal;font-variant:normal;font-weight:normal;font-stretch:normal;text-align:start;text-anchor:start;fill:#000000;font-family:Sans;-inkscape-font-specification:Clean" /></flowRegion><flowPara
           id="flowPara3016"
           style="font-size:32.3961525px">EPICUNITY</flowPara></flowRoot>      <g
         transform="matrix(2.4870951,-0.02592905,0.02478524,2.3823855,298.74995,271.43791)"
         id="g3838"
         style="fill:#000000">
        <path
           inkscape:connector-curvature="0"
           d="m 55.105775,22.341802 c -6.236,0.772 -4.039,4.692 -4.039,4.692 -1.115,-2.561 4.454,-3.326 3.564,0.713 -0.891,4.039 -10.397,0.422 -10.397,0.422 l -0.009,0.017 c -0.393,-0.189 -0.789,-0.374 -1.205,-0.533 -3.837,-1.473 -7.824,-1.344 -11.037,0.036 -3.214,-1.38 -7.2,-1.509 -11.038,-0.036 -0.41,0.158 -0.801,0.341 -1.189,0.526 l -0.006,-0.01 c 0,0 -9.506,3.616 -10.3969995,-0.422 -0.891,-4.039 4.6779995,-3.274 3.5629995,-0.713 0,0 2.198,-3.92 -4.0389995,-4.692 -6.236,-0.772 -9.325,5.583 -5.108,11.7 3.692,5.356 14.0879995,3.935 18.8059995,2.638 0.095,-0.025 0.19,-0.057 0.285,-0.085 0.535,-0.155 1.005,-0.306 1.348,-0.441 3.517,-1.35 6.218,-3.788 7.773,-6.63 1.556,2.842 4.256,5.28 7.773,6.63 0.087,0.034 0.176,0.054 0.263,0.086 0.255,0.093 0.553,0.19 0.892,0.292 0.203,0.061 0.406,0.124 0.609,0.176 4.766,1.289 15.029,2.649 18.693,-2.667 4.22,-6.116 1.131,-12.471 -5.105,-11.699 z"
           id="path3840"
           style="fill:#000000" />
      </g>
    </g>
  </g>
</svg>
